# xmcd
#
# Track frame offsets: 
#        150
#        3824
#        15753
#        31152
#        44809
#        59417
#        76187
#        90105
#        104866
#        122746
#        139776
#        151447
#        167461
#
# Disc length: 2311 seconds
#
# Revision: 0
# Processed by: cddbd v1.4PL0 Copyright (c) Steve Scherf et al.
# Submitted via: ExactAudioCopy v0.90b3
#
DISCID=9209050d
DTITLE=David Allan Coe - Songwriter Of The Tear
DYEAR=1900
DGENRE=Country
TTITLE0=Intro
TTITLE1=Someday You'll Have Children Of Your Own
TTITLE2=Then I Found You
TTITLE3=The Ghost Of Hank Williams
TTITLE4=Standing Too Close To The Flame
TTITLE5=DesperateMan
TTITLE6=The Only Thing Missing Is You
TTITLE7=Drinking Her Off My Mind
TTITLE8=The Walls In This House Are Too Thin
TTITLE9=It's Too Late Now
TTITLE10=Drink Canada Dry
TTITLE11=The Penny
TTITLE12=Outro
EXTD=
EXTT0=
EXTT1=
EXTT2=
EXTT3=
EXTT4=
EXTT5=
EXTT6=
EXTT7=
EXTT8=
EXTT9=
EXTT10=
EXTT11=
EXTT12=
PLAYORDER=
